<svg xmlns="http://www.w3.org/2000/svg" xmlns:xlink="http://www.w3.org/1999/xlink" viewBox="0,0,256,256" width="48px" height="48px" fill-rule="nonzero"><g transform="translate(-44.8,-44.8) scale(1.35,1.35)"><g fill="none" fill-rule="nonzero" stroke="none" stroke-width="1" stroke-linecap="butt" stroke-linejoin="miter" stroke-miterlimit="10" stroke-dasharray="" stroke-dashoffset="0" font-family="none" font-weight="none" font-size="none" text-anchor="none" style="mix-blend-mode: normal"><g transform="scale(5.33333,5.33333)"><path d="M42,37c0,2.76 -2.24,5 -5,5h-26c-2.76,0 -5,-2.24 -5,-5v-26c0,-2.76 2.24,-5 5,-5h26c2.76,0 5,2.24 5,5z" fill="#fb8c00"></path><path d="M33.77,27.04c-0.71,-0.5 -1.68,-0.32 -2.18,0.39c-2.14,2.96 -5.22,5.57 -9.58,5.57c-4.36,0 -4.62,-7.88 -2,-13c1.61,-3.14 3.87,-5.73 5.84,-5.72c1.39,0 2.18,1.26 1.8,2.6c-0.46,1.63 -0.51,2.72 -0.51,2.81c-0.04,0.96 0.71,1.77 1.68,1.8c0.02,0 0.04,0.01 0.07,0.01c0.93,0 1.7,-0.74 1.74,-1.68c0,-0.03 0.18,-3.31 2.78,-6.77c0.63,-0.84 0.39,-2.07 -0.57,-2.59c-0.77,-0.42 -1.75,-0.14 -2.27,0.56c-0.15,0.2 -0.29,0.39 -0.42,0.59c-0.14,0.2 -0.4,0.27 -0.62,0.17c-7.7,-3.47 -12.07,3.86 -13.51,7.23c-3,7 -3,18 5.62,18c7.22,0 10.63,-4.75 12.6,-7.79c0.46,-0.71 0.27,-1.66 -0.42,-2.14c-0.01,0 -0.02,-0.02 -0.03,-0.02z" fill="#ffffff"></path></g></g></g></svg>
